<svg xmlns="http://www.w3.org/2000/svg" xmlns:xlink="http://www.w3.org/1999/xlink" width="1927" height="121" viewBox="0 0 1927 121"><defs><style>.a{fill:#fff;stroke:#707070;}.b{clip-path:url(#a);}.c{fill:none;stroke:#538cfc;}.d{fill:#538cfc;}.e{fill:#7669eb;}</style><clipPath id="a"><rect class="a" width="1927" height="121" transform="translate(2836 -500)"/></clipPath></defs><g class="b" transform="translate(-2836 500)"><g transform="matrix(0.999, -0.052, 0.052, 0.999, -57.28, -31.868)"><path class="c" d="M-1.934,165.712l272.572-1.863s104.724-4.478,144.4-8.9c137.776-15.371,360.619-90.57,508.912-90.117s343.917,37.4,536.113,34.85S1916.552-20.452,1916.552-20.452" transform="translate(2933.865 -428.128) rotate(7)"/><g transform="translate(2913.776 -264.115)"><path class="d" d="M17.644-.241l15.73,29.979L-.459,30.8Z" transform="translate(33.479 35.184) rotate(-171)"/><path class="d" d="M17.583-.214l15.875,30L-.408,30.73Z" transform="translate(179.571 51.92) rotate(-172)"/><path class="d" d="M17.454-.16,33.618,29.888-.307,30.6Z" transform="translate(325.524 66.687) rotate(-174)"/><path class="d" d="M16.742.077,34.134,30.6.153,30.24Z" transform="matrix(-0.999, 0.052, -0.052, -0.999, 482.328, 67.994)"/><path class="d" d="M16.373.175,34.25,31.026l-33.9-.831Z" transform="translate(647.644 52.663) rotate(173)"/><path class="d" d="M16.742.077,34.134,30.6.153,30.24Z" transform="matrix(-0.999, 0.052, -0.052, -0.999, 813.775, 39.415)"/><path class="d" d="M17.853-.346,33,29.611-.656,31.117Z" transform="translate(1002.006 56.095) rotate(-167)"/><path class="d" d="M17.976-.422l14.7,29.995L-.8,31.393Z" transform="translate(1192.965 97.048) rotate(-164)"/><path class="d" d="M17.806-.32,33.1,29.635l-33.7,1.4Z" transform="translate(1376.339 132.971) rotate(-168)"/><path class="d" d="M16.83.052,34.094,30.5.1,30.263Z" transform="translate(1569.329 144.556) rotate(178)"/><path class="d" d="M15.882.286,34.295,31.638l-33.7-1.4Z" transform="translate(1736.697 124.193) rotate(168)"/><path class="d" d="M15.272.4,34.2,32.463.857,30.444Z" transform="matrix(-0.951, 0.309, -0.309, -0.951, 1920.671, 81.77)"/></g><g transform="translate(2986.846 -256.058)"><path class="e" d="M17.644-.241l15.73,29.979L-.459,30.8Z" transform="translate(33.479 35.712) rotate(-171)"/><path class="e" d="M17.513-.213,33.478,29.8l-33.885.882Z" transform="translate(179.186 51.744) rotate(-172)"/><path class="e" d="M17.163-.079,33.83,30.909-.158,31.2Z" transform="matrix(-0.999, -0.052, 0.052, -0.999, 330.929, 62.576)"/><path class="e" d="M16.357.175l17.9,31.652L.362,31Z" transform="translate(492.397 53.444) rotate(173)"/><path class="e" d="M16.454.151,34.236,31.714.311,31Z" transform="translate(657.847 36.968) rotate(174)"/><path class="e" d="M17.4-.133l16.29,30.881-33.948.6Z" transform="translate(837.069 33.902) rotate(-175)"/><path class="e" d="M17.969-.4l14.8,30.789L-.771,32.108Z" transform="translate(1025.291 68.231) rotate(-165)"/><path class="e" d="M17.927-.373,32.876,30.4l-33.6,1.613Z" transform="translate(1207.195 108.12) rotate(-166)"/><path class="e" d="M17.535-.187l16,30.821-33.9.831Z" transform="translate(1394.486 137.247) rotate(-173)"/><path class="e" d="M16.357.175l17.9,31.652L.362,31Z" transform="matrix(-0.993, 0.122, -0.122, -0.993, 1580.062, 129.8)"/><path class="e" d="M15.443.363,34.27,32.991.792,31.171Z" transform="translate(1762.748 96.133) rotate(164)"/></g></g></g></svg>